<svg width="40" height="40" viewBox="0 0 40 40" fill="none" xmlns="http://www.w3.org/2000/svg">
<g id="Icon">
<path d="M25.7127 2.13078L20.632 13.519C20.2401 14.3957 20.2473 15.4375 20.7652 16.2478C21.5096 17.4171 22.96 17.8393 24.1844 17.3216L38.4492 11.3201L35.307 9.053L24.421 13.7129C24.2719 13.7776 24.119 13.6213 24.187 13.4737L28.525 4.15983L25.7127 2.13078Z" fill="#F0801A"/>
<path d="M4.28535 10.0007L13.5038 18.3987C14.2132 19.0459 15.2045 19.3661 16.1365 19.1286C17.4803 18.7888 18.3364 17.5441 18.2291 16.2192L17.0075 0.791611L13.8688 3.06357L14.8769 14.8619C14.8916 15.0238 14.6953 15.12 14.5764 15.0091L7.09447 7.96727L4.28535 10.0007Z" fill="#F0801A"/>
<path d="M26.9543 39.1537L24.3687 26.9545C24.1703 26.0149 23.5521 25.1764 22.6567 24.8255C21.3671 24.3172 19.9456 24.8284 19.2595 25.967L11.249 39.2084L15.1237 39.1949L21.1898 29.0253C21.2723 28.8853 21.4879 28.9218 21.5197 29.0812L23.4865 39.1657L26.9543 39.1537Z" fill="#F0801A"/>
<path d="M4.85436 32.7601L15.6786 26.5682C16.5125 26.092 17.1219 25.247 17.1822 24.2871C17.2718 22.9039 16.3504 21.7068 15.0566 21.4017L0 17.8238L1.19761 21.5087L12.7349 24.1747C12.8935 24.2105 12.9247 24.4269 12.7826 24.5059L3.78249 29.4621L4.85436 32.7601Z" fill="#F0801A"/>
<path d="M40 20.1096L27.6029 18.7615C26.6483 18.657 25.6588 18.9828 25.0461 19.7241C24.161 20.7909 24.2034 22.3009 25.0712 23.3079L35.1537 35.0486L36.3493 31.3631L28.579 22.4277C28.4717 22.3056 28.5736 22.1122 28.735 22.1317L38.9299 23.4083L40 20.1096Z" fill="#F0801A"/>
</g>
</svg>
